<svg xmlns="http://www.w3.org/2000/svg" viewBox="0 0 150.99 151">
    <g id="Camada_2" data-name="Camada 2">
        <g id="Layer_1" data-name="Layer 1">
            <path style="fill:#121441;fill-rule:evenodd;" d="M0,151H151V0H0V151ZM96.77,11.53h0a67.31,67.31,0,0,1,46.05,63.94c.07,29.41-18.83,54.65-46,64V11.53ZM75.47,8.12h0A75.81,75.81,0,0,1,89.7,9.61C89.7,43.82,56.62,72,22.47,72L8.2,72C10.54,36.88,39.55,8.12,75.47,8.12Zm-53,71h0c34.13,0,67.21,28.12,67.21,62.3a75.53,75.53,0,0,1-14.23,1.52C39.54,142.87,9.54,114,8.18,79.1H22.49Z"/>
        </g>
    </g>
</svg>