<svg xmlns="http://www.w3.org/2000/svg" xmlns:xlink="http://www.w3.org/1999/xlink" viewBox="0 0 554.51 989.92">
    <defs>
        <linearGradient id="Gradiente_sem_nome_19" x1="554.51" y1="494.96" x2="0" y2="494.96" gradientUnits="userSpaceOnUse">
            <stop offset="0" stop-color="#ceaf8b"/>
            <stop offset="1" stop-color="#b4874e"/>
        </linearGradient>
    </defs>
    <g id="Camada_2" data-name="Camada 2">
        <g id="Layer_1" data-name="Layer 1">
            <path style="fill:url(#Gradiente_sem_nome_19);" d="M395.14,221.18C369,182.66,326.8,156.56,283.3,156.56c-22.36,0-43.49,5-62.12,16.16s-32.31,24.85-41,43.49c-8.7,17.39-11.18,36-8.7,55.91,3.73,19.88,13.67,37.28,27.34,53.43,14.91,16.16,28.58,22.37,67.1,46,29.82,18.64,60.89,34.79,94.43,54.67s64.62,41,98.17,70.83c16.15,14.91,32.3,31.06,47.21,50.94,13.67,21.13,26.1,43.49,34.8,67.1,8.69,24.85,12.42,49.71,13.66,74.56,1.25,23.6-1.24,47.21-5,68.34-6.21,48.46-26.09,95.67-59.64,134.19a276.05,276.05,0,0,1-123,82,278.87,278.87,0,0,1-142.9,11.19c-46-8.7-88.22-24.85-126.74-49.7-36-23.61-68.34-50.95-96.92-84.5l33.55-28.58a407.72,407.72,0,0,0,87,74.56c33.55,21.12,70.82,37.27,110.59,43.48s82,5,121.77-8.69c41-13.67,75.8-36,101.89-68.34,28.58-33.55,44.73-72.07,50.94-111.84,6.22-38.52,6.22-82-7.45-121.77-13.67-41-41-74.55-69.58-100.65-29.83-26.09-60.89-46-91.95-64.61s-62.13-34.79-93.2-53.43l-23.61-13.67a244.73,244.73,0,0,1-53.43-41c-22.36-23.61-34.79-48.46-38.52-77-5-28.58-1.24-55.92,12.43-83.25,13.67-28.58,32.31-48.47,58.4-62.13a165.27,165.27,0,0,1,84.49-22.37c58.41,0,121.78,34.79,149.11,85.74Zm94.43-59.65c-6.21-9.94-12.42-16.15-18.64-24.85l-21.12-22.36c-16.15-14.91-32.31-27.34-48.46-36a220.58,220.58,0,0,0-118-33.55,247.6,247.6,0,0,0-60.88,7.46c-19.88,5-39.76,13.67-58.4,23.61C126.74,96.92,98.16,128,79.52,166.5S54.67,247.27,60.88,290.76c7.46,43.49,26.1,79.52,55.92,110.59,14.91,16.15,29.82,29.82,46,39.76,44.73,29.82,93.19,52.19,139.16,80.77,58.4,34.79,114.32,75.8,133,130.47,8.7,26.09,9.94,54.67,5,88.22a161.36,161.36,0,0,1-36,79.53c-18.64,22.36-42.24,38.52-72.07,48.46-29.82,8.69-59.64,11.18-89.46,6.21C182.66,864.83,128,826.31,84.49,777.85L118,748c38.52,43.49,83.26,73.31,131.72,82s93.19-5,119.28-38.52c13.67-16.16,22.37-36,26.1-58.4,5-26.1,3.72-48.46-2.49-67.1-6.21-17.4-18.64-34.8-38.52-53.43q-31.68-28-74.55-52.19c-69.59-41-142.9-70.83-196.33-129.23C49.7,396.38,26.09,350.4,17.4,297,8.7,246,16.15,192.6,39.76,146.62,63.37,99.41,96.92,63.37,141.65,37.28A274.46,274.46,0,0,1,211.24,8.7c23.61-5,47.21-8.7,72.06-8.7C333,0,382.71,14.91,423.71,39.76,444.84,51,462.23,65.86,480.87,82c22.37,21.12,37.28,38.52,46,54.67Z"/>
        </g>
    </g>
</svg>