<svg xmlns="http://www.w3.org/2000/svg" viewBox="0 0 657.69 151">
    <g id="Camada_2" data-name="Camada 2">
        <g id="Layer_1" data-name="Layer 1">
            <path style="fill:#121441;fill-rule:evenodd;" d="M0,151H151V0H0V151ZM96.77,11.53h0a67.31,67.31,0,0,1,46.05,63.94c.07,29.41-18.83,54.65-46,64V11.53ZM75.47,8.12h0A75.81,75.81,0,0,1,89.7,9.61C89.7,43.82,56.62,72,22.47,72L8.2,72C10.54,36.88,39.55,8.12,75.47,8.12Zm-53,71h0c34.13,0,67.21,28.12,67.21,62.3a75.53,75.53,0,0,1-14.23,1.52C39.54,142.87,9.54,114,8.18,79.1H22.49Z"/>
            <path style="fill:#121441;fill-rule:evenodd;" d="M201.53,88.77V79.25H233V67.11H201.52V49.45H235V37.35H188.66V88.22c0,12.86,5.48,21.65,18.34,23.46a3.32,3.32,0,0,0,.74.11H208a35.58,35.58,0,0,0,4.07.25h23.79V100H212.15C208.07,100,201.53,97.94,201.53,88.77Z"/>
            <polygon style="fill:#121441;fill-rule:evenodd;" points="244.98 72.64 244.98 112.06 257.85 112.06 257.85 72.39 257.85 37.33 244.98 37.33 244.98 72.64"/>
            <path style="fill:#121441;fill-rule:evenodd;" d="M294.74,56.31c-16.26,0-28.43,11.2-28.43,28.65v.43c0,17,11.74,28,28.75,28,8.19,0,15.83-2.26,22.83-9.69l-7.75-7.54c-4.09,4.09-8.08,6.25-14.65,6.25-9.58,0-15.94-5.6-16.37-14.22h42.22c.22-2.15.22-4.52.22-4.52,0-15.18-10.67-27.36-26.82-27.36Zm-15.3,22.84h0c.54-6.57,7.22-11.85,15.3-11.85,7.54,0,13.68,5.39,13.68,11.85Z"/>
            <path style="fill:#121441;fill-rule:evenodd;" d="M357.71,67.84a18.19,18.19,0,0,1,13.78,5.92l8-8.29a28.52,28.52,0,0,0-21.75-9.37c-16.37,0-29.51,12.17-29.51,28.75s13.14,28.76,29.51,28.76a28.51,28.51,0,0,0,21.75-9.37l-8-8.29a18.19,18.19,0,0,1-13.78,5.92c-9.48,0-16.7-7.22-16.7-17S348.23,67.84,357.71,67.84Z"/>
            <path style="fill:#121441;fill-rule:evenodd;" d="M400.34,88.79h0V69.71H412V58H400.34V37.33H387.47V89.55h0c.36,12.14,5.88,20.41,18.3,22.15a3.35,3.35,0,0,0,.74.12h.24a38.06,38.06,0,0,0,4.07.24h1.35l.06-12.08H411C406.87,100,400.34,98,400.34,88.79Z"/>
            <path style="fill:#121441;fill-rule:evenodd;" d="M435.61,66.06V58H422.85v54h12.76V83.65c0-8.9,5.68-14.48,14.58-14.48a26,26,0,0,1,5.36.54V57.27a28.54,28.54,0,0,0-3.86-.32C444,57,438.18,60.49,435.61,66.06Z"/>
            <path style="fill:#121441;fill-rule:evenodd;" d="M487,56.42c-16.41,0-29.49,12.43-29.49,28.62S470.6,113.67,487,113.67,516.49,101.23,516.49,85,503.3,56.42,487,56.42ZM487,102h0A16.94,16.94,0,1,1,503.73,85,16.53,16.53,0,0,1,487,102Z"/>
            <polygon style="fill:#121441;fill-rule:evenodd;" points="524.4 71.35 524.4 112.06 537.28 112.06 537.28 71.87 537.28 37.33 524.4 37.33 524.4 71.35"/>
            <path style="fill:#121441;fill-rule:evenodd;" d="M583.68,89.43c0,8.58-5,12.23-11.8,12.23S560.09,98,560.09,89.55V58h-13v32.6c0,15.44,11.25,22.84,24.66,22.84s24.87-7.5,24.87-23.16V58h-13v31.4Z"/>
            <polygon style="fill:#121441;fill-rule:evenodd;" points="645.33 94.78 637.22 83.43 647.27 69.75 655.87 58.02 641.83 58.02 630.14 74.21 618.34 58.02 604.41 58.02 612.4 68.95 623.06 83.54 611.89 99.1 602.58 112.06 616.42 112.06 630.14 92.97 643.86 112.06 657.69 112.06 645.33 94.78"/>
        </g>
    </g>
</svg>